<?xml version="1.0" encoding="UTF-8"?><svg id="Layer_2" xmlns="http://www.w3.org/2000/svg" width="73.87" height="75.77" viewBox="0 0 73.87 75.77"><g id="Layer_1-2"><polygon points="43.04 20.93 42.68 19.38 27.2 22.91 19.98 37.91 27.2 52.91 43.43 56.61 56.45 46.23 56.45 29.59 43.43 19.21 42.68 19.38 43.04 20.93 42.04 22.18 53.26 31.12 53.26 44.69 42.64 53.16 29.41 50.14 23.53 37.91 29.41 25.68 43.39 22.49 43.04 20.93 42.04 22.18 43.04 20.93" fill="#000" stroke-width="0"/><polygon points="45.06 10.97 44.71 9.42 20.7 14.9 9.69 37.77 20.7 60.65 45.46 66.29 65.31 50.46 65.31 25.08 45.46 9.25 44.71 9.42 45.06 10.97 44.07 12.22 62.11 26.61 62.11 48.93 44.67 62.84 22.91 57.88 13.23 37.77 22.91 17.67 45.42 12.53 45.06 10.97 44.07 12.22 45.06 10.97" fill="#000" stroke-width="0"/><polygon points="47.11 1.73 46.76 .17 14.63 7.5 0 37.89 14.63 68.27 47.51 75.77 73.87 54.75 73.87 21.03 47.51 0 46.76 .17 47.11 1.73 46.12 2.98 70.68 22.56 70.68 53.21 46.72 72.32 16.84 65.5 3.54 37.89 16.84 10.27 47.47 3.28 47.11 1.73 46.12 2.98 47.11 1.73" fill="#000" stroke-width="0"/></g></svg>